HIERARCHY
ROOT Hips
{
	OFFSET 0.000000 97.167313 0.000000
	CHANNELS 6 Xposition Yposition Zposition Xrotation Yrotation Zrotation
	JOINT Spine
	{
		OFFSET 0.000000 13.784798 0.064400
		CHANNELS 3 Xrotation Yrotation Zrotation
		JOINT Spine1
		{
			OFFSET 0.000000 12.037903 0.404700
			CHANNELS 3 Xrotation Yrotation Zrotation
			JOINT Spine2
			{
				OFFSET 0.000000 17.795601 0.420200
				CHANNELS 3 Xrotation Yrotation Zrotation
				JOINT Neck
				{
					OFFSET 0.000000 39.131302 11.954600
					CHANNELS 3 Xrotation Yrotation Zrotation
					JOINT Head
					{
						OFFSET 0.000000 14.456192 15.627699
						CHANNELS 3 Xrotation Yrotation Zrotation
						JOINT HeadTop_End
						{
							OFFSET 0.000000 15.703506 7.603401
							CHANNELS 3 Xrotation Yrotation Zrotation
							End Site
							{
								OFFSET 0.000000 17.447403 0.000000
							}
						}
					}
				}
				JOINT LeftShoulder
				{
					OFFSET 17.399500 24.608795 1.168800
					CHANNELS 3 Xrotation Yrotation Zrotation
					JOINT LeftArm
					{
						OFFSET 18.980635 5.765305 1.818600
						CHANNELS 3 Xrotation Yrotation Zrotation
						JOINT LeftForeArm
						{
							OFFSET 49.290169 0.000000 0.000000
							CHANNELS 3 Xrotation Yrotation Zrotation
							JOINT LeftHand
							{
								OFFSET 31.562012 0.000000 0.000000
								CHANNELS 3 Xrotation Yrotation Zrotation
								JOINT LeftHandThumb1
								{
									OFFSET 6.133995 -4.388519 7.076070
									CHANNELS 3 Xrotation Yrotation Zrotation
									JOINT LeftHandThumb2
									{
										OFFSET 6.037666 -3.485840 3.485847
										CHANNELS 3 Xrotation Yrotation Zrotation
										JOINT LeftHandThumb3
										{
											OFFSET 6.496506 -3.750763 3.750761
											CHANNELS 3 Xrotation Yrotation Zrotation
											JOINT LeftHandThumb4
											{
												OFFSET 5.616882 -3.242905 3.242910
												CHANNELS 3 Xrotation Yrotation Zrotation
												End Site
												{
													OFFSET -1.254608 7.132141 0.375429
												}
											}
										}
									}
								}
								JOINT LeftHandPinky1
								{
									OFFSET 18.920792 -0.453171 -11.426712
									CHANNELS 3 Xrotation Yrotation Zrotation
									JOINT LeftHandPinky2
									{
										OFFSET 4.919586 0.000000 0.000000
										CHANNELS 3 Xrotation Yrotation Zrotation
										JOINT LeftHandPinky3
										{
											OFFSET 5.233047 0.000000 0.000000
											CHANNELS 3 Xrotation Yrotation Zrotation
											JOINT LeftHandPinky4
											{
												OFFSET 5.571716 0.000000 0.000000
												CHANNELS 3 Xrotation Yrotation Zrotation
												End Site
												{
													OFFSET -3.459808 4.342407 -0.466164
												}
											}
										}
									}
								}
								JOINT LeftHandRing1
								{
									OFFSET 22.726120 -0.094986 -6.500475
									CHANNELS 3 Xrotation Yrotation Zrotation
									JOINT LeftHandRing2
									{
										OFFSET 6.408615 0.000000 0.000000
										CHANNELS 3 Xrotation Yrotation Zrotation
										JOINT LeftHandRing3
										{
											OFFSET 6.150223 0.000000 0.000000
											CHANNELS 3 Xrotation Yrotation Zrotation
											JOINT LeftHandRing4
											{
												OFFSET 6.145386 0.000000 0.000000
												CHANNELS 3 Xrotation Yrotation Zrotation
												End Site
												{
													OFFSET -3.671402 4.923981 -0.202372
												}
											}
										}
									}
								}
								JOINT LeftHandMiddle1
								{
									OFFSET 23.373947 0.000000 0.000001
									CHANNELS 3 Xrotation Yrotation Zrotation
									JOINT LeftHandMiddle2
									{
										OFFSET 6.996567 0.000000 0.000000
										CHANNELS 3 Xrotation Yrotation Zrotation
										JOINT LeftHandMiddle3
										{
											OFFSET 7.015945 0.000000 0.000000
											CHANNELS 3 Xrotation Yrotation Zrotation
											JOINT LeftHandMiddle4
											{
												OFFSET 7.721573 0.000000 0.000000
												CHANNELS 3 Xrotation Yrotation Zrotation
												End Site
												{
													OFFSET -4.651108 6.158463 0.251582
												}
											}
										}
									}
								}
								JOINT LeftHandIndex1
								{
									OFFSET 21.310577 -0.490082 6.209344
									CHANNELS 3 Xrotation Yrotation Zrotation
									JOINT LeftHandIndex2
									{
										OFFSET 7.536453 0.000000 0.000000
										CHANNELS 3 Xrotation Yrotation Zrotation
										JOINT LeftHandIndex3
										{
											OFFSET 7.512344 0.000000 0.000000
											CHANNELS 3 Xrotation Yrotation Zrotation
											JOINT LeftHandIndex4
											{
												OFFSET 10.212402 0.000000 0.000001
												CHANNELS 3 Xrotation Yrotation Zrotation
												End Site
												{
													OFFSET -5.180801 8.690506 1.388433
												}
											}
										}
									}
								}
							}
						}
					}
				}
				JOINT RightShoulder
				{
					OFFSET -17.399500 24.608795 1.168800
					CHANNELS 3 Xrotation Yrotation Zrotation
					JOINT RightArm
					{
						OFFSET -18.980635 5.765305 1.818600
						CHANNELS 3 Xrotation Yrotation Zrotation
						JOINT RightForeArm
						{
							OFFSET -49.290169 0.000000 0.000000
							CHANNELS 3 Xrotation Yrotation Zrotation
							JOINT RightHand
							{
								OFFSET -31.562012 0.000000 0.000000
								CHANNELS 3 Xrotation Yrotation Zrotation
								JOINT RightHandThumb1
								{
									OFFSET -6.133995 -4.388519 7.076070
									CHANNELS 3 Xrotation Yrotation Zrotation
									JOINT RightHandThumb2
									{
										OFFSET -6.037666 -3.485840 3.485847
										CHANNELS 3 Xrotation Yrotation Zrotation
										JOINT RightHandThumb3
										{
											OFFSET -6.496506 -3.750763 3.750761
											CHANNELS 3 Xrotation Yrotation Zrotation
											JOINT RightHandThumb4
											{
												OFFSET -5.616882 -3.242905 3.242910
												CHANNELS 3 Xrotation Yrotation Zrotation
												End Site
												{
													OFFSET 1.254608 7.132141 0.375429
												}
											}
										}
									}
								}
								JOINT RightHandIndex1
								{
									OFFSET -21.310577 -0.490082 6.209344
									CHANNELS 3 Xrotation Yrotation Zrotation
									JOINT RightHandIndex2
									{
										OFFSET -7.536453 0.000000 0.000000
										CHANNELS 3 Xrotation Yrotation Zrotation
										JOINT RightHandIndex3
										{
											OFFSET -7.512344 0.000000 0.000000
											CHANNELS 3 Xrotation Yrotation Zrotation
											JOINT RightHandIndex4
											{
												OFFSET -10.212402 0.000000 0.000001
												CHANNELS 3 Xrotation Yrotation Zrotation
												End Site
												{
													OFFSET 5.180801 8.690506 1.388433
												}
											}
										}
									}
								}
								JOINT RightHandMiddle1
								{
									OFFSET -23.373947 0.000000 0.000001
									CHANNELS 3 Xrotation Yrotation Zrotation
									JOINT RightHandMiddle2
									{
										OFFSET -6.996567 0.000000 0.000000
										CHANNELS 3 Xrotation Yrotation Zrotation
										JOINT RightHandMiddle3
										{
											OFFSET -7.015945 0.000000 0.000000
											CHANNELS 3 Xrotation Yrotation Zrotation
											JOINT RightHandMiddle4
											{
												OFFSET -7.721573 0.000000 0.000000
												CHANNELS 3 Xrotation Yrotation Zrotation
												End Site
												{
													OFFSET 4.651108 6.158463 0.251582
												}
											}
										}
									}
								}
								JOINT RightHandRing1
								{
									OFFSET -22.726120 -0.094986 -6.500475
									CHANNELS 3 Xrotation Yrotation Zrotation
									JOINT RightHandRing2
									{
										OFFSET -6.408615 0.000000 0.000000
										CHANNELS 3 Xrotation Yrotation Zrotation
										JOINT RightHandRing3
										{
											OFFSET -6.150223 0.000000 0.000000
											CHANNELS 3 Xrotation Yrotation Zrotation
											JOINT RightHandRing4
											{
												OFFSET -6.145386 0.000000 0.000000
												CHANNELS 3 Xrotation Yrotation Zrotation
												End Site
												{
													OFFSET 3.671402 4.923981 -0.202372
												}
											}
										}
									}
								}
								JOINT RightHandPinky1
								{
									OFFSET -18.920792 -0.453171 -11.426712
									CHANNELS 3 Xrotation Yrotation Zrotation
									JOINT RightHandPinky2
									{
										OFFSET -4.919586 0.000000 0.000000
										CHANNELS 3 Xrotation Yrotation Zrotation
										JOINT RightHandPinky3
										{
											OFFSET -5.233047 0.000000 0.000000
											CHANNELS 3 Xrotation Yrotation Zrotation
											JOINT RightHandPinky4
											{
												OFFSET -5.571716 0.000000 0.000000
												CHANNELS 3 Xrotation Yrotation Zrotation
												End Site
												{
													OFFSET 3.459808 4.342407 -0.466164
												}
											}
										}
									}
								}
							}
						}
					}
				}
			}
		}
	}
	JOINT LeftUpLeg
	{
		OFFSET 19.899099 -7.885101 -3.429500
		CHANNELS 3 Xrotation Yrotation Zrotation
		JOINT LeftLeg
		{
			OFFSET 1.745560 -36.997807 10.304700
			CHANNELS 3 Xrotation Yrotation Zrotation
			JOINT LeftFoot
			{
				OFFSET -1.745558 -29.803308 -13.615400
				CHANNELS 3 Xrotation Yrotation Zrotation
				JOINT LeftToeBase
				{
					OFFSET 1.181900 -18.539904 15.226099
					CHANNELS 3 Xrotation Yrotation Zrotation
					JOINT LeftToe_End
					{
						OFFSET -0.863701 1.402801 16.534700
						CHANNELS 3 Xrotation Yrotation Zrotation
						End Site
						{
							OFFSET 0.000000 16.616566 0.000000
						}
					}
				}
			}
		}
	}
	JOINT RightUpLeg
	{
		OFFSET -19.899099 -7.885101 -3.429500
		CHANNELS 3 Xrotation Yrotation Zrotation
		JOINT RightLeg
		{
			OFFSET -1.745560 -36.997807 10.304700
			CHANNELS 3 Xrotation Yrotation Zrotation
			JOINT RightFoot
			{
				OFFSET 1.745558 -29.803308 -13.615400
				CHANNELS 3 Xrotation Yrotation Zrotation
				JOINT RightToeBase
				{
					OFFSET -1.181900 -18.539904 15.226099
					CHANNELS 3 Xrotation Yrotation Zrotation
					JOINT RightToe_End
					{
						OFFSET 0.863701 1.402801 16.534700
						CHANNELS 3 Xrotation Yrotation Zrotation
						End Site
						{
							OFFSET 0.000000 16.616566 0.000000
						}
					}
				}
			}
		}
	}
}
MOTION
Frames: 4
Frame Time: 0.033333
25.091909 230.022766 349.367615 -255.969699 -3.898154 1.807352 36.493414 0.669600 -2.189870 33.613075 3.983131 -3.464127 21.702648 4.399406 -4.016981 -2.599610 0.799120 1.302250 8.139585 5.024103 -1.700385 0.000000 -0.000001 0.000001 9.098110 -7.022431 -3.170966 -38.066847 -12.237575 -39.717724 0.770727 -51.920380 0.075998 -25.973521 -5.372486 9.646859 -0.887772 6.400651 -7.964936 14.315726 9.929735 33.469614 -2.275580 -4.348074 9.876927 0.000000 0.000002 -0.000002 -1.233935 4.297940 -7.430043 0.435618 1.994912 -21.655460 0.220339 1.457588 -15.168629 -0.000000 0.000001 -0.000000 0.006498 2.903057 -12.992071 0.055483 0.931947 -10.639351 0.112553 1.136134 -11.186935 0.000001 0.000001 0.000003 0.098458 3.552365 -10.404017 0.067646 0.804541 -11.009826 0.146677 1.281638 -13.357046 -0.000000 -0.000002 0.000001 -0.031839 3.634637 -2.937731 0.041691 0.671926 -8.034124 0.046571 0.785185 -8.410199 -0.000001 0.000001 0.000001 11.781673 -1.028921 -5.413912 -49.804783 -28.042518 57.559520 0.781654 49.788637 -0.074897 -16.748802 0.926129 -0.493923 -35.994161 -6.428991 -2.795461 17.669419 -5.528643 -9.861778 7.145170 -4.596366 -7.493133 0.000001 -0.000000 -0.000002 -0.648729 -1.988305 14.506352 0.302441 -0.648581 15.934992 0.310450 -0.702860 16.624464 -0.000000 -0.000003 -0.000001 1.555990 -7.168173 24.577812 0.934201 -1.640911 32.296116 0.977156 -2.026138 36.177815 0.000001 0.000001 -0.000004 3.177865 -7.097203 32.885039 0.588031 -1.677046 30.868825 0.662034 -1.973057 34.082193 0.000001 -0.000000 -0.000005 -6.522972 -18.807520 30.420204 0.930301 -1.963622 33.147489 0.977092 -2.108613 34.540277 -0.000001 0.000003 0.000003 -100.402586 15.564715 18.725170 105.332951 -19.132429 -4.069852 -12.637966 -13.044880 -8.060192 3.361246 0.049759 -0.007865 -0.000001 0.000000 0.000001 -82.355655 -5.161044 -24.482048 114.901581 12.361376 -1.291151 -4.692128 16.228531 -3.318280 -9.881452 -0.864780 0.000016 -0.000000 0.000000 0.000000 
28.193626 216.590729 362.664001 -268.254259 -3.180670 5.938725 35.662142 0.916445 -2.374410 33.366403 3.987190 -3.593725 22.638073 3.892223 -4.475882 -2.151733 0.637780 1.774079 8.716934 5.738693 -0.784479 0.000000 -0.000001 0.000001 8.983264 -7.127956 -3.238673 -37.287683 -9.825196 -38.835397 0.971683 -51.327116 0.080083 -27.862640 -6.483209 7.836327 -0.380774 7.388041 -10.154000 14.249236 10.232720 35.950830 -2.411720 -1.858040 9.197917 0.000003 0.000001 0.000000 -0.991753 3.577669 -8.873511 0.414106 1.868824 -20.827982 0.208280 1.369683 -14.500579 -0.000000 -0.000001 0.000001 -0.015837 2.955242 -14.687325 0.042303 0.884248 -10.593128 0.104065 1.091677 -10.778406 0.000000 -0.000000 0.000005 0.139988 3.854287 -11.972518 0.051083 0.673153 -10.585068 0.136128 1.233473 -13.100033 0.000001 -0.000001 0.000001 -0.035654 3.984683 -4.328681 0.040034 0.645728 -8.178749 0.047612 0.795193 -8.682147 -0.000001 0.000001 -0.000003 12.332535 -1.044109 -3.870542 -52.136972 -26.715464 57.468153 0.923079 45.777407 0.007102 -15.633852 2.815191 1.313416 -35.163047 -6.324026 -3.221101 18.190508 -5.822996 -9.246690 7.196913 -4.076741 -8.646741 0.000002 -0.000001 -0.000005 -0.829039 -1.945571 14.161146 0.343068 -0.533124 16.759394 0.349667 -0.587414 17.446794 0.000000 -0.000001 0.000001 1.418284 -7.159453 23.942890 1.010198 -1.448809 32.997617 1.018171 -1.863568 36.793198 0.000001 0.000000 -0.000004 3.282857 -6.949236 32.491265 0.580529 -1.512453 31.363344 0.631566 -1.813820 34.350883 -0.000001 -0.000000 -0.000003 -6.446792 -18.584837 30.677573 0.998995 -1.844095 33.876973 1.048796 -2.013174 35.455201 0.000002 -0.000000 -0.000001 -100.582418 15.895491 17.445215 101.582508 -19.449035 -5.390196 -14.327575 -13.287165 -10.403879 4.882858 0.044519 -0.012122 0.000001 -0.000001 -0.000000 -78.036352 -9.877119 -22.452770 112.096641 11.292968 -2.584251 -6.833346 16.363270 -6.451212 -9.386928 -1.059040 -0.000513 0.000002 0.000001 0.000002 
30.125986 199.361023 377.670288 -283.144454 -4.341783 8.988633 33.871847 2.012013 -2.483444 32.819202 4.135759 -3.212766 24.807951 2.864451 -4.662539 -1.075517 0.358329 2.293963 9.505798 5.973357 1.557988 -0.000000 0.000001 -0.000000 8.817183 -7.108700 -3.539847 -36.653070 -6.205352 -37.572338 1.298633 -49.990967 0.059529 -31.288957 -7.641452 4.884508 0.319686 8.430806 -12.452969 14.240172 10.295455 37.668029 -2.058777 1.045200 8.725126 -0.000001 -0.000000 -0.000001 -1.077696 3.059904 -11.025914 0.444232 1.843153 -21.424972 0.237699 1.420180 -15.401858 0.000001 -0.000001 -0.000006 -0.057107 3.076269 -17.868982 0.040026 0.934631 -11.814226 0.116060 1.146725 -11.354389 0.000000 -0.000001 -0.000002 0.243791 4.377011 -14.796838 0.038021 0.582628 -11.197699 0.150626 1.286007 -14.008159 0.000000 -0.000001 -0.000003 0.005112 4.545616 -6.316343 0.037550 0.646403 -8.886237 0.054214 0.858715 -9.621891 -0.000000 0.000002 -0.000004 13.152221 -1.680104 -2.496706 -52.934591 -26.169771 55.511509 1.309211 47.094807 -0.042516 -14.016582 5.159210 0.285460 -31.995383 -5.749260 -4.191284 18.631342 -6.505377 -8.281152 7.159272 -2.480378 -10.157399 -0.000000 -0.000001 0.000003 -1.155009 -2.077226 13.914168 0.405393 -0.378554 18.867132 0.411306 -0.443237 19.688529 -0.000000 -0.000002 0.000003 1.181359 -6.962203 23.615166 1.140390 -1.148875 34.807238 1.102156 -1.630364 38.654243 -0.000000 0.000001 -0.000006 3.419222 -6.505727 32.347943 0.576435 -1.279672 32.940660 0.599980 -1.604863 35.742114 0.000000 -0.000000 -0.000003 -6.055186 -17.948916 30.777789 1.148565 -1.719018 36.573645 1.211538 -1.934398 38.606504 0.000000 -0.000002 -0.000001 -99.443572 14.354307 15.417467 91.970587 -19.955612 -8.038736 -19.333337 -12.283434 -14.202230 8.568358 0.026596 -0.022522 0.000003 -0.000002 -0.000001 -69.990164 -14.455761 -21.592798 107.861705 12.139627 -2.571570 -16.065658 16.689169 -8.281240 -8.402111 -1.355590 -0.001100 -0.000000 0.000000 0.000001 
30.615204 176.903305 395.025665 -300.960948 -7.008505 8.917027 31.002314 4.136481 -2.228846 31.771697 4.447755 -1.725653 27.958228 1.342125 -3.912454 0.489313 -0.030009 2.422929 9.975443 5.232663 4.798217 -0.000000 0.000001 0.000001 8.625550 -6.798235 -4.304931 -37.158353 -2.284779 -35.835329 1.703289 -47.228627 -0.041817 -36.704019 -7.835151 1.105355 0.963679 9.173356 -14.245374 14.404242 10.086507 37.425847 -0.997594 3.961301 8.504092 0.000000 0.000000 0.000002 -1.715716 3.200129 -14.083875 0.562893 2.024244 -24.598260 0.345077 1.717611 -19.015030 0.000001 0.000002 0.000001 -0.101748 3.360934 -23.322357 0.066459 1.172733 -15.158027 0.168682 1.379584 -13.714565 -0.000001 -0.000001 0.000005 0.482498 5.164972 -19.473438 0.031042 0.621795 -13.676824 0.211988 1.520886 -16.896433 0.000001 -0.000003 0.000001 0.146541 5.323841 -9.157440 0.037127 0.715634 -10.557100 0.075726 1.015053 -11.626953 -0.000000 0.000001 0.000002 13.850776 -3.240735 -2.329940 -51.131206 -26.804857 50.118255 2.297045 57.545922 -0.669570 -11.635861 6.820969 -6.141056 -25.462880 -4.559284 -5.778296 18.824146 -7.718384 -6.775381 7.054721 0.085378 -12.673781 0.000000 0.000001 -0.000001 -1.713121 -2.232450 14.197030 0.467456 -0.178680 22.159806 0.471839 -0.265007 23.267335 -0.000001 0.000000 -0.000001 0.868390 -6.361011 23.938015 1.288981 -0.715011 37.270751 1.193178 -1.300388 41.286503 -0.000002 -0.000000 -0.000007 3.542063 -5.530677 32.517547 0.549074 -0.961470 35.223613 0.541316 -1.326988 37.843766 -0.000001 0.000001 -0.000005 -5.092691 -16.471549 30.489927 1.343389 -1.559540 40.949286 1.426059 -1.832510 43.589250 0.000002 0.000002 0.000001 -97.161818 10.763573 12.560872 74.403436 -17.362373 -11.414173 -14.999153 -8.107030 -17.356540 12.889003 0.004599 -0.031675 -0.000002 0.000004 -0.000000 -61.659294 -17.757720 -19.076167 100.440548 14.179391 -1.753293 -23.946184 16.975943 -10.475836 -8.888264 -1.712839 0.000187 0.000000 -0.000000 0.000001 
